# File created by Blade
# Date/Time:  Wed Jan 21 18:40:08 2015
# Frame Rate: 120.000 fps
#------------------------------------------------------
:FULLY-SPECIFIED
:DEGREES
3041
root -1.628271 19.336328 -11.222675 81.903916 -41.347049 12.935940
RightUpLeg -176.707733 -11.119443 23.410738
RightLeg 89.186742 -0.000000 -0.000000
RightFoot 3.576906 37.833253 26.197550
RightToeBase 29.452080 -0.000000 -0.000000
LeftUpLeg -89.874453 44.976629 -46.499942
LeftLeg -1.406202 -0.000000 0.000000
LeftFoot -1.029850 2.080225 -26.345136
LeftToeBase 11.381214 -0.000000 -0.000000
Spine -26.632189 -38.484961 29.343158
RightShoulder -22.802977 -1.356240 -37.702534
RightArm -19.587376 -18.151222 68.309158
RightForeArm 17.941805 -0.000000 -6.691570
RightHand 33.696679 -0.000000 -24.057533
RightHandThumb1 -24.326973 -0.000000 -32.862282
LeftShoulder 16.052008 -15.518056 33.971833
LeftArm 75.011176 21.869165 -28.573721
LeftForeArm 35.148507 -0.000000 20.081482
LeftHand -15.672184 -0.000000 8.708154
LeftHandThumb1 -26.253704 0.000000 33.147579
Head -25.191861 -5.441683 21.376744
3042
root -1.631412 19.349428 -11.254499 82.421332 -41.613878 12.706986
RightUpLeg -176.895916 -10.619579 23.292664
RightLeg 88.987801 -0.000000 -0.000000
RightFoot 3.809142 37.868704 26.344800
RightToeBase 29.655548 -0.000000 -0.000000
LeftUpLeg -90.579155 44.853938 -47.273628
LeftLeg -1.404727 -0.000000 0.000000
LeftFoot -0.922667 2.029992 -26.218439
LeftToeBase 11.481027 -0.000000 -0.000000
Spine -26.634673 -38.942125 29.503480
RightShoulder -23.178089 -1.808733 -37.731089
RightArm -20.012386 -18.423673 68.695255
RightForeArm 17.752702 -0.000000 -7.390659
RightHand 33.123000 -0.000000 -22.587957
RightHandThumb1 -24.326973 -0.000000 -32.862282
LeftShoulder 16.232955 -15.630944 33.989221
LeftArm 75.571468 22.084887 -27.438449
LeftForeArm 34.922874 -0.000000 19.162114
LeftHand -15.206010 0.000000 8.135500
LeftHandThumb1 -26.253704 0.000000 33.147579
Head -25.623690 -6.111091 21.725559
3043
root -1.634471 19.361037 -11.286329 82.888810 -41.852505 12.504483
RightUpLeg -177.079332 -10.167758 23.183557
RightLeg 88.809289 -0.000000 -0.000000
RightFoot 4.123877 37.883737 26.620651
RightToeBase 29.818531 -0.000000 -0.000000
LeftUpLeg -91.177201 44.729564 -47.888213
LeftLeg -1.368485 -0.000000 0.000000
LeftFoot -0.846065 1.999541 -25.956138
LeftToeBase 11.469368 -0.000000 -0.000000
Spine -26.636744 -39.410822 29.664205
RightShoulder -23.509430 -2.375247 -37.724304
RightArm -20.326824 -18.748324 69.131221
RightForeArm 17.513927 -0.000000 -8.193043
RightHand 32.623557 0.000000 -21.353686
RightHandThumb1 -24.326973 -0.000000 -32.862282
LeftShoulder 16.442365 -15.765117 34.004125
LeftArm 75.989764 22.316348 -26.480540
LeftForeArm 34.911627 -0.000000 18.257430
LeftHand -14.892138 -0.000000 7.523445
LeftHandThumb1 -26.253704 0.000000 33.147579
Head -26.040482 -6.879368 22.079174
3044
root -1.643207 19.371177 -11.321748 83.464547 -42.087536 12.189500
RightUpLeg -177.247312 -9.643501 23.056479
RightLeg 88.635893 -0.000000 -0.000000
RightFoot 4.469768 37.829152 27.009597
RightToeBase 30.098918 -0.000000 -0.000000
LeftUpLeg -91.834800 44.647304 -48.456480
LeftLeg -1.287789 -0.000000 0.000000
LeftFoot -0.834240 2.021197 -25.816312
LeftToeBase 11.511576 -0.000000 -0.000000
Spine -26.653031 -39.872794 29.864482
RightShoulder -23.785862 -2.735331 -37.740931
RightArm -20.807479 -19.019372 69.537786
RightForeArm 17.151268 -0.000000 -8.835850
RightHand 31.959015 0.000000 -20.117380
RightHandThumb1 -24.326973 -0.000000 -32.862282
LeftShoulder 16.486368 -15.851112 34.039662
LeftArm 76.467574 22.617453 -25.419395
LeftForeArm 34.529148 0.000000 17.310001
LeftHand -14.519673 -0.000000 6.949624
LeftHandThumb1 -26.253704 0.000000 33.147579
Head -26.468981 -7.639961 22.510271
3045
root -1.649449 19.379547 -11.354590 84.034652 -42.321807 11.871992
RightUpLeg -177.390636 -9.138752 22.923631
RightLeg 88.444948 -0.000000 -0.000000
RightFoot 4.669326 37.811809 27.011749
RightToeBase 29.782655 -0.000000 -0.000000
LeftUpLeg -92.480983 44.565384 -49.040387
LeftLeg -1.228954 -0.000000 0.000000
LeftFoot -0.847229 2.026645 -25.664709
LeftToeBase 11.555954 -0.000000 -0.000000
Spine -26.714660 -40.338129 30.052987
RightShoulder -23.954883 -3.106699 -37.728913
RightArm -21.265046 -19.275341 69.937392
RightForeArm 16.930829 -0.000000 -9.562203
RightHand 31.370881 -0.000000 -18.813440
RightHandThumb1 -24.326973 -0.000000 -32.862282
LeftShoulder 16.594621 -15.880574 34.087529
LeftArm 76.886271 22.906498 -24.388812
LeftForeArm 34.078249 -0.000000 16.225319
LeftHand -14.098897 -0.000000 6.658401
LeftHandThumb1 -26.253704 0.000000 33.147579
Head -26.759711 -8.401749 22.961963
3046
root -1.656289 19.387040 -11.387992 84.600755 -42.538329 11.535813
RightUpLeg -177.520118 -8.618554 22.798617
RightLeg 88.270923 -0.000000 -0.000000
RightFoot 4.961552 37.787205 27.489216
RightToeBase 30.234417 -0.000000 -0.000000
LeftUpLeg -93.123892 44.497236 -49.602415
LeftLeg -1.159607 -0.000000 0.000000
LeftFoot -0.862964 2.030789 -25.488290
LeftToeBase 11.584224 -0.000000 -0.000000
Spine -26.780698 -40.821803 30.233090
RightShoulder -24.104738 -3.524965 -37.701157
RightArm -21.583146 -19.367654 70.245542
RightForeArm 16.670314 -0.000000 -10.272367
RightHand 30.683361 0.000000 -17.617274
RightHandThumb1 -24.326973 -0.000000 -32.862282
LeftShoulder 16.733597 -15.917630 34.142604
LeftArm 77.204850 23.247488 -23.435378
LeftForeArm 33.528630 -0.000000 14.998672
LeftHand -13.521533 -0.000000 6.278534
LeftHandThumb1 -26.253704 0.000000 33.147579
Head -26.953115 -9.331350 23.527940
3047
root -1.661760 19.392214 -11.417011 85.097286 -42.713154 11.234933
RightUpLeg -177.631559 -8.149543 22.719022
RightLeg 88.117032 -0.000000 -0.000000
RightFoot 5.331728 37.662915 28.045473
RightToeBase 30.454726 -0.000000 -0.000000
LeftUpLeg -93.703243 44.432505 -50.126127
LeftLeg -1.140319 -0.000000 0.000000
LeftFoot -0.877397 2.004273 -25.181203
LeftToeBase 11.676658 -0.000000 -0.000000
Spine -26.790246 -41.275573 30.398750
RightShoulder -24.350427 -3.873844 -37.723732
RightArm -21.946511 -19.392333 70.493493
RightForeArm 16.417281 -0.000000 -10.902365
RightHand 30.018072 -0.000000 -16.472392
RightHandThumb1 -24.326973 -0.000000 -32.862282
LeftShoulder 16.864075 -15.936689 34.222168
LeftArm 77.408022 23.553176 -22.726776
LeftForeArm 33.501673 -0.000000 13.950520
LeftHand -13.425016 -0.000000 5.647676
LeftHandThumb1 -26.253704 0.000000 33.147579
Head -27.241157 -10.381610 24.121446
3048
root -1.669939 19.400870 -11.452594 85.738582 -42.913644 10.821981
RightUpLeg -177.742777 -7.594357 22.581159
RightLeg 87.940243 -0.000000 -0.000000
RightFoot 5.267336 37.513094 28.081760
RightToeBase 30.758814 -0.000000 -0.000000
LeftUpLeg -94.473099 44.364893 -50.833848
LeftLeg -1.136172 -0.000000 0.000000
LeftFoot -0.819133 1.931156 -24.850992
LeftToeBase 11.598287 -0.000000 -0.000000
Spine -26.796942 -41.591472 30.501802
RightShoulder -24.645893 -4.317867 -37.687371
RightArm -22.191848 -19.110021 70.548482
RightForeArm 16.208113 -0.000000 -11.394732
RightHand 29.395269 -0.000000 -15.372622
RightHandThumb1 -24.326973 -0.000000 -32.862282
LeftShoulder 16.949851 -15.981812 34.266428
LeftArm 77.750117 23.965783 -21.671692
LeftForeArm 33.229032 -0.000000 12.839039
LeftHand -13.289353 -0.000000 5.286767
LeftHandThumb1 -26.253704 0.000000 33.147579
Head -27.572597 -11.517834 24.769939
3049
root -1.675673 19.407983 -11.481496 86.317130 -43.126518 10.467058
RightUpLeg -177.864064 -7.075858 22.453416
RightLeg 87.779515 -0.000000 -0.000000
RightFoot 5.287968 37.400170 28.159336
RightToeBase 30.815252 -0.000000 -0.000000
LeftUpLeg -95.159280 44.268995 -51.567634
LeftLeg -1.215515 -0.000000 0.000000
LeftFoot -0.658098 1.840707 -24.302966
LeftToeBase 11.298271 -0.000000 -0.000000
Spine -26.821172 -41.953580 30.602803
RightShoulder -24.950161 -4.691561 -37.654379
RightArm -22.466883 -18.923941 70.591166
RightForeArm 16.207590 -0.000000 -11.826858
RightHand 28.778026 0.000000 -14.477028
RightHandThumb1 -24.326973 -0.000000 -32.862282
LeftShoulder 17.007208 -15.952325 34.288229
LeftArm 77.983323 24.276374 -20.831787
LeftForeArm 32.972460 -0.000000 11.767870
LeftHand -13.071055 0.000000 4.689027
LeftHandThumb1 -26.253704 0.000000 33.147579
Head -27.907382 -12.677843 25.434023
3050
root -1.677779 19.411995 -11.496974 86.739297 -43.294263 10.231630
RightUpLeg -177.987517 -6.726681 22.378336
RightLeg 87.664897 -0.000000 -0.000000
RightFoot 5.479432 37.351760 28.439444
RightToeBase 30.765517 -0.000000 -0.000000
LeftUpLeg -95.691844 44.161597 -52.263947
LeftLeg -1.377175 -0.000000 0.000000
LeftFoot -0.602722 1.681465 -24.178882
LeftToeBase 11.502999 -0.000000 -0.000000
Spine -26.809762 -42.395021 30.775888
RightShoulder -25.314738 -4.852184 -37.716269
RightArm -22.839681 -18.598974 70.487731
RightForeArm 15.910449 -0.000000 -12.183787
RightHand 27.985429 -0.000000 -13.517384
RightHandThumb1 -24.326973 -0.000000 -32.862282
LeftShoulder 16.985179 -16.005446 34.234408
LeftArm 78.152483 24.676793 -20.062938
LeftForeArm 32.834417 -0.000000 10.698534
LeftHand -12.859328 -0.000000 4.392128
LeftHandThumb1 -26.253704 0.000000 33.147579
Head -28.407290 -13.911559 26.076478
